<svg width="57" height="26" viewBox="0 0 57 26" fill="none" xmlns="http://www.w3.org/2000/svg">
<path d="M6.58 4.08V9.288C6.58 10.176 6.34 10.872 5.86 11.376C5.388 11.872 4.732 12.12 3.892 12.12C3.3 12.12 2.812 12.008 2.428 11.784C2.044 11.56 1.776 11.244 1.624 10.836C1.48 10.42 1.46 9.936 1.564 9.384L2.452 9.204C2.364 9.884 2.424 10.392 2.632 10.728C2.848 11.056 3.256 11.22 3.856 11.22C4.536 11.22 5 11.036 5.248 10.668C5.496 10.292 5.62 9.752 5.62 9.048V4.08H6.58ZM11.3031 5.88C11.8711 5.88 12.3711 6.004 12.8031 6.252C13.2431 6.5 13.5871 6.86 13.8351 7.332C14.0831 7.796 14.2071 8.352 14.2071 9C14.2071 9.648 14.0831 10.208 13.8351 10.68C13.5871 11.144 13.2431 11.5 12.8031 11.748C12.3711 11.996 11.8711 12.12 11.3031 12.12C10.7431 12.12 10.2431 11.996 9.80313 11.748C9.36313 11.5 9.01913 11.144 8.77113 10.68C8.52313 10.208 8.39913 9.648 8.39913 9C8.39913 8.352 8.52313 7.796 8.77113 7.332C9.01913 6.86 9.36313 6.5 9.80313 6.252C10.2431 6.004 10.7431 5.88 11.3031 5.88ZM11.3031 6.708C10.8951 6.708 10.5471 6.8 10.2591 6.984C9.97113 7.168 9.74713 7.432 9.58713 7.776C9.43513 8.112 9.35913 8.52 9.35913 9C9.35913 9.472 9.43513 9.88 9.58713 10.224C9.74713 10.568 9.97113 10.832 10.2591 11.016C10.5471 11.2 10.8951 11.292 11.3031 11.292C11.7111 11.292 12.0591 11.2 12.3471 11.016C12.6351 10.832 12.8551 10.568 13.0071 10.224C13.1671 9.88 13.2471 9.472 13.2471 9C13.2471 8.52 13.1671 8.112 13.0071 7.776C12.8551 7.432 12.6351 7.168 12.3471 6.984C12.0591 6.8 11.7111 6.708 11.3031 6.708ZM16.0144 12V3.24H16.9744V6.9C17.1824 6.54 17.4584 6.28 17.8024 6.12C18.1464 5.96 18.5224 5.88 18.9304 5.88C19.3624 5.88 19.7544 5.964 20.1064 6.132C20.4584 6.292 20.7384 6.54 20.9464 6.876C21.1624 7.212 21.2704 7.64 21.2704 8.16V12H20.3104V8.496C20.3104 7.832 20.1664 7.372 19.8784 7.116C19.5984 6.852 19.2504 6.72 18.8344 6.72C18.5464 6.72 18.2584 6.788 17.9704 6.924C17.6824 7.06 17.4424 7.284 17.2504 7.596C17.0664 7.9 16.9744 8.308 16.9744 8.82V12H16.0144ZM23.4441 12V6H24.2841L24.3681 7.344L24.2121 7.212C24.3401 6.892 24.5121 6.636 24.7281 6.444C24.9441 6.244 25.1921 6.1 25.4721 6.012C25.7601 5.924 26.0561 5.88 26.3601 5.88C26.7921 5.88 27.1841 5.964 27.5361 6.132C27.8881 6.292 28.1681 6.54 28.3761 6.876C28.5921 7.212 28.7001 7.64 28.7001 8.16V12H27.7401V8.496C27.7401 7.832 27.5961 7.372 27.3081 7.116C27.0281 6.852 26.6801 6.72 26.2641 6.72C25.9761 6.72 25.6881 6.788 25.4001 6.924C25.1121 7.06 24.8721 7.28 24.6801 7.584C24.4961 7.888 24.4041 8.296 24.4041 8.808V12H23.4441ZM37.6997 4.08C38.9397 4.08 39.9117 4.424 40.6157 5.112C41.3277 5.792 41.6837 6.768 41.6837 8.04C41.6837 9.312 41.3277 10.292 40.6157 10.98C39.9117 11.66 38.9397 12 37.6997 12H35.1437V4.08H37.6997ZM37.7957 11.1C38.6997 11.1 39.4037 10.832 39.9077 10.296C40.4197 9.752 40.6757 9 40.6757 8.04C40.6757 7.08 40.4197 6.332 39.9077 5.796C39.4037 5.252 38.6997 4.98 37.7957 4.98H36.1037V11.1H37.7957ZM46.0961 5.88C46.6641 5.88 47.1641 6.004 47.5961 6.252C48.0361 6.5 48.3801 6.86 48.6281 7.332C48.8761 7.796 49.0001 8.352 49.0001 9C49.0001 9.648 48.8761 10.208 48.6281 10.68C48.3801 11.144 48.0361 11.5 47.5961 11.748C47.1641 11.996 46.6641 12.12 46.0961 12.12C45.5361 12.12 45.0361 11.996 44.5961 11.748C44.1561 11.5 43.8121 11.144 43.5641 10.68C43.3161 10.208 43.1921 9.648 43.1921 9C43.1921 8.352 43.3161 7.796 43.5641 7.332C43.8121 6.86 44.1561 6.5 44.5961 6.252C45.0361 6.004 45.5361 5.88 46.0961 5.88ZM46.0961 6.708C45.6881 6.708 45.3401 6.8 45.0521 6.984C44.7641 7.168 44.5401 7.432 44.3801 7.776C44.2281 8.112 44.1521 8.52 44.1521 9C44.1521 9.472 44.2281 9.88 44.3801 10.224C44.5401 10.568 44.7641 10.832 45.0521 11.016C45.3401 11.2 45.6881 11.292 46.0961 11.292C46.5041 11.292 46.8521 11.2 47.1401 11.016C47.4281 10.832 47.6481 10.568 47.8001 10.224C47.9601 9.88 48.0401 9.472 48.0401 9C48.0401 8.52 47.9601 8.112 47.8001 7.776C47.6481 7.432 47.4281 7.168 47.1401 6.984C46.8521 6.8 46.5041 6.708 46.0961 6.708ZM53.3154 12.12C52.7474 12.12 52.2394 11.996 51.7914 11.748C51.3514 11.5 51.0074 11.144 50.7594 10.68C50.5114 10.208 50.3874 9.648 50.3874 9C50.3874 8.352 50.5114 7.796 50.7594 7.332C51.0074 6.86 51.3474 6.5 51.7794 6.252C52.2114 6.004 52.7034 5.88 53.2554 5.88C53.8154 5.88 54.2914 6 54.6834 6.24C55.0834 6.48 55.3874 6.808 55.5954 7.224C55.8034 7.632 55.9074 8.092 55.9074 8.604C55.9074 8.74 55.9034 8.864 55.8954 8.976C55.8874 9.088 55.8754 9.188 55.8594 9.276H51.0114V8.424H55.4394L54.9474 8.52C54.9474 7.944 54.7874 7.5 54.4674 7.188C54.1554 6.876 53.7434 6.72 53.2314 6.72C52.8394 6.72 52.4994 6.812 52.2114 6.996C51.9314 7.172 51.7114 7.432 51.5514 7.776C51.3994 8.112 51.3234 8.52 51.3234 9C51.3234 9.472 51.4034 9.88 51.5634 10.224C51.7234 10.568 51.9474 10.832 52.2354 11.016C52.5314 11.192 52.8834 11.28 53.2914 11.28C53.7314 11.28 54.0874 11.196 54.3594 11.028C54.6394 10.86 54.8634 10.632 55.0314 10.344L55.7874 10.788C55.6354 11.06 55.4394 11.296 55.1994 11.496C54.9674 11.696 54.6914 11.852 54.3714 11.964C54.0594 12.068 53.7074 12.12 53.3154 12.12Z" fill="#121212"/>
<path d="M2.33 17.04C2.15 17.04 2.00333 16.9867 1.89 16.88C1.78333 16.7667 1.73 16.62 1.73 16.44C1.73 16.26 1.78333 16.1167 1.89 16.01C2.00333 15.8967 2.15 15.84 2.33 15.84C2.51 15.84 2.65333 15.8967 2.76 16.01C2.87333 16.1167 2.93 16.26 2.93 16.44C2.93 16.62 2.87333 16.7667 2.76 16.88C2.65333 16.9867 2.51 17.04 2.33 17.04ZM2.73 18V23.51C2.73 23.9233 2.65 24.25 2.49 24.49C2.33 24.73 2.13333 24.9 1.9 25C1.66667 25.1 1.43667 25.15 1.21 25.15C1.00333 25.15 0.813333 25.1167 0.64 25.05C0.466667 24.99 0.323333 24.9133 0.21 24.82L0.38 24.06C0.473333 24.1467 0.59 24.22 0.73 24.28C0.87 24.34 1.02667 24.37 1.2 24.37C1.41333 24.37 1.58667 24.3 1.72 24.16C1.86 24.02 1.93 23.7767 1.93 23.43V18H2.73ZM6.65625 17.9C7.12958 17.9 7.54625 18.0033 7.90625 18.21C8.27292 18.4167 8.55958 18.7167 8.76625 19.11C8.97292 19.4967 9.07625 19.96 9.07625 20.5C9.07625 21.04 8.97292 21.5067 8.76625 21.9C8.55958 22.2867 8.27292 22.5833 7.90625 22.79C7.54625 22.9967 7.12958 23.1 6.65625 23.1C6.18958 23.1 5.77292 22.9967 5.40625 22.79C5.03958 22.5833 4.75292 22.2867 4.54625 21.9C4.33958 21.5067 4.23625 21.04 4.23625 20.5C4.23625 19.96 4.33958 19.4967 4.54625 19.11C4.75292 18.7167 5.03958 18.4167 5.40625 18.21C5.77292 18.0033 6.18958 17.9 6.65625 17.9ZM6.65625 18.59C6.31625 18.59 6.02625 18.6667 5.78625 18.82C5.54625 18.9733 5.35958 19.1933 5.22625 19.48C5.09958 19.76 5.03625 20.1 5.03625 20.5C5.03625 20.8933 5.09958 21.2333 5.22625 21.52C5.35958 21.8067 5.54625 22.0267 5.78625 22.18C6.02625 22.3333 6.31625 22.41 6.65625 22.41C6.99625 22.41 7.28625 22.3333 7.52625 22.18C7.76625 22.0267 7.94958 21.8067 8.07625 21.52C8.20958 21.2333 8.27625 20.8933 8.27625 20.5C8.27625 20.1 8.20958 19.76 8.07625 19.48C7.94958 19.1933 7.76625 18.9733 7.52625 18.82C7.28625 18.6667 6.99625 18.59 6.65625 18.59ZM10.5823 23V15.7H11.3823V18.75C11.5557 18.45 11.7857 18.2333 12.0723 18.1C12.359 17.9667 12.6723 17.9 13.0123 17.9C13.3723 17.9 13.699 17.97 13.9923 18.11C14.2857 18.2433 14.519 18.45 14.6923 18.73C14.8723 19.01 14.9623 19.3667 14.9623 19.8V23H14.1623V20.08C14.1623 19.5267 14.0423 19.1433 13.8023 18.93C13.569 18.71 13.279 18.6 12.9323 18.6C12.6923 18.6 12.4523 18.6567 12.2123 18.77C11.9723 18.8833 11.7723 19.07 11.6123 19.33C11.459 19.5833 11.3823 19.9233 11.3823 20.35V23H10.5823ZM16.7738 23V18H17.4738L17.5438 19.12L17.4138 19.01C17.5204 18.7433 17.6638 18.53 17.8438 18.37C18.0238 18.2033 18.2304 18.0833 18.4638 18.01C18.7038 17.9367 18.9504 17.9 19.2038 17.9C19.5638 17.9 19.8904 17.97 20.1838 18.11C20.4771 18.2433 20.7104 18.45 20.8838 18.73C21.0638 19.01 21.1538 19.3667 21.1538 19.8V23H20.3538V20.08C20.3538 19.5267 20.2338 19.1433 19.9938 18.93C19.7604 18.71 19.4704 18.6 19.1238 18.6C18.8838 18.6 18.6438 18.6567 18.4038 18.77C18.1638 18.8833 17.9638 19.0667 17.8038 19.32C17.6504 19.5733 17.5738 19.9133 17.5738 20.34V23H16.7738ZM23.3652 21.8C23.5585 21.8 23.7152 21.86 23.8352 21.98C23.9552 22.1 24.0152 22.2567 24.0152 22.45C24.0152 22.6433 23.9552 22.8 23.8352 22.92C23.7152 23.04 23.5585 23.1 23.3652 23.1C23.1718 23.1 23.0152 23.04 22.8952 22.92C22.7752 22.8 22.7152 22.6433 22.7152 22.45C22.7152 22.2567 22.7752 22.1 22.8952 21.98C23.0152 21.86 23.1718 21.8 23.3652 21.8ZM27.3761 23.1C26.9628 23.1 26.5828 22.9967 26.2361 22.79C25.8894 22.5833 25.6128 22.2867 25.4061 21.9C25.1994 21.5067 25.0961 21.04 25.0961 20.5C25.0961 19.9467 25.2061 19.4767 25.4261 19.09C25.6461 18.7033 25.9361 18.41 26.2961 18.21C26.6561 18.0033 27.0428 17.9 27.4561 17.9C27.8694 17.9 28.2261 18.0067 28.5261 18.22C28.8328 18.4333 29.0361 18.7167 29.1361 19.07L29.0361 19.14V15.7H29.8361V23H29.1361L29.0661 21.79L29.1761 21.73C29.1294 22.0233 29.0161 22.2733 28.8361 22.48C28.6628 22.68 28.4461 22.8333 28.1861 22.94C27.9328 23.0467 27.6628 23.1 27.3761 23.1ZM27.4561 22.4C27.7761 22.4 28.0528 22.32 28.2861 22.16C28.5261 22 28.7094 21.7733 28.8361 21.48C28.9694 21.18 29.0361 20.83 29.0361 20.43C29.0361 20.05 28.9694 19.7233 28.8361 19.45C28.7094 19.1767 28.5294 18.9667 28.2961 18.82C28.0694 18.6733 27.8028 18.6 27.4961 18.6C26.9894 18.6 26.5961 18.7733 26.3161 19.12C26.0361 19.4667 25.8961 19.9267 25.8961 20.5C25.8961 21.0733 26.0328 21.5333 26.3061 21.88C26.5794 22.2267 26.9628 22.4 27.4561 22.4ZM33.7656 17.9C34.239 17.9 34.6556 18.0033 35.0156 18.21C35.3823 18.4167 35.669 18.7167 35.8756 19.11C36.0823 19.4967 36.1856 19.96 36.1856 20.5C36.1856 21.04 36.0823 21.5067 35.8756 21.9C35.669 22.2867 35.3823 22.5833 35.0156 22.79C34.6556 22.9967 34.239 23.1 33.7656 23.1C33.299 23.1 32.8823 22.9967 32.5156 22.79C32.149 22.5833 31.8623 22.2867 31.6556 21.9C31.449 21.5067 31.3456 21.04 31.3456 20.5C31.3456 19.96 31.449 19.4967 31.6556 19.11C31.8623 18.7167 32.149 18.4167 32.5156 18.21C32.8823 18.0033 33.299 17.9 33.7656 17.9ZM33.7656 18.59C33.4256 18.59 33.1356 18.6667 32.8956 18.82C32.6556 18.9733 32.469 19.1933 32.3356 19.48C32.209 19.76 32.1456 20.1 32.1456 20.5C32.1456 20.8933 32.209 21.2333 32.3356 21.52C32.469 21.8067 32.6556 22.0267 32.8956 22.18C33.1356 22.3333 33.4256 22.41 33.7656 22.41C34.1056 22.41 34.3956 22.3333 34.6356 22.18C34.8756 22.0267 35.059 21.8067 35.1856 21.52C35.319 21.2333 35.3856 20.8933 35.3856 20.5C35.3856 20.1 35.319 19.76 35.1856 19.48C35.059 19.1933 34.8756 18.9733 34.6356 18.82C34.3956 18.6667 34.1056 18.59 33.7656 18.59ZM39.7817 23.1C39.3084 23.1 38.8851 22.9967 38.5117 22.79C38.1451 22.5833 37.8584 22.2867 37.6517 21.9C37.4451 21.5067 37.3417 21.04 37.3417 20.5C37.3417 19.96 37.4451 19.4967 37.6517 19.11C37.8584 18.7167 38.1417 18.4167 38.5017 18.21C38.8617 18.0033 39.2717 17.9 39.7317 17.9C40.1984 17.9 40.5951 18 40.9217 18.2C41.2551 18.4 41.5084 18.6733 41.6817 19.02C41.8551 19.36 41.9417 19.7433 41.9417 20.17C41.9417 20.2833 41.9384 20.3867 41.9317 20.48C41.9251 20.5733 41.9151 20.6567 41.9017 20.73H37.8617V20.02H41.5517L41.1417 20.1C41.1417 19.62 41.0084 19.25 40.7417 18.99C40.4817 18.73 40.1384 18.6 39.7117 18.6C39.3851 18.6 39.1017 18.6767 38.8617 18.83C38.6284 18.9767 38.4451 19.1933 38.3117 19.48C38.1851 19.76 38.1217 20.1 38.1217 20.5C38.1217 20.8933 38.1884 21.2333 38.3217 21.52C38.4551 21.8067 38.6417 22.0267 38.8817 22.18C39.1284 22.3267 39.4217 22.4 39.7617 22.4C40.1284 22.4 40.4251 22.33 40.6517 22.19C40.8851 22.05 41.0717 21.86 41.2117 21.62L41.8417 21.99C41.7151 22.2167 41.5517 22.4133 41.3517 22.58C41.1584 22.7467 40.9284 22.8767 40.6617 22.97C40.4017 23.0567 40.1084 23.1 39.7817 23.1ZM49.7832 21.8C49.9765 21.8 50.1332 21.86 50.2532 21.98C50.3732 22.1 50.4332 22.2567 50.4332 22.45C50.4332 22.6433 50.3732 22.8 50.2532 22.92C50.1332 23.04 49.9765 23.1 49.7832 23.1C49.5899 23.1 49.4332 23.04 49.3132 22.92C49.1932 22.8 49.1332 22.6433 49.1332 22.45C49.1332 22.2567 49.1932 22.1 49.3132 21.98C49.4332 21.86 49.5899 21.8 49.7832 21.8ZM46.8832 21.8C47.0765 21.8 47.2332 21.86 47.3532 21.98C47.4732 22.1 47.5332 22.2567 47.5332 22.45C47.5332 22.6433 47.4732 22.8 47.3532 22.92C47.2332 23.04 47.0765 23.1 46.8832 23.1C46.6899 23.1 46.5332 23.04 46.4132 22.92C46.2932 22.8 46.2332 22.6433 46.2332 22.45C46.2332 22.2567 46.2932 22.1 46.4132 21.98C46.5332 21.86 46.6899 21.8 46.8832 21.8ZM43.9832 21.8C44.1765 21.8 44.3332 21.86 44.4532 21.98C44.5732 22.1 44.6332 22.2567 44.6332 22.45C44.6332 22.6433 44.5732 22.8 44.4532 22.92C44.3332 23.04 44.1765 23.1 43.9832 23.1C43.7899 23.1 43.6332 23.04 43.5132 22.92C43.3932 22.8 43.3332 22.6433 43.3332 22.45C43.3332 22.2567 43.3932 22.1 43.5132 21.98C43.6332 21.86 43.7899 21.8 43.9832 21.8Z" fill="#757575"/>
</svg>
